<svg width="43" height="39" viewBox="0 0 43 39" fill="none" xmlns="http://www.w3.org/2000/svg">
<g filter="url(#filter0_d)">
<rect x="34" y="8" width="24" height="24" rx="6" transform="rotate(90 34 8)" fill="#F8FAFC"/>
<g filter="url(#filter1_d)">
<path d="M19 18.5C21.5 18.5 22 18.5 22 18.5C22 18.5 22.5 18.5 25 18.5C27.5 18.5 27.5 24 25 22.5C22.5 21 21.5 21 19 22.5C16.5 24 16.5 18.5 19 18.5Z" fill="url(#paint0_linear)"/>
<path d="M25 21.375C22.5 21.375 22 21.375 22 21.375C22 21.375 21.5 21.375 19 21.375C16.5 21.375 16.5 15.875 19 17.375C21.5 18.875 22.5 18.875 25 17.375C27.5 15.875 27.5 21.375 25 21.375Z" fill="url(#paint1_linear)"/>
<path d="M29 20C29 23.866 27.8807 27 26.5 27C25.1193 27 24 23.866 24 20C24 16.134 25.1193 13 26.5 13C27.8807 13 29 16.134 29 20Z" fill="url(#paint2_linear)"/>
<path d="M20 20C20 23.866 18.8807 27 17.5 27C16.1193 27 15 23.866 15 20C15 16.134 16.1193 13 17.5 13C18.8807 13 20 16.134 20 20Z" fill="url(#paint3_linear)"/>
</g>
<rect x="33.75" y="8.25" width="23.5" height="23.5" rx="5.75" transform="rotate(90 33.75 8.25)" stroke="#E2E8F0" stroke-width="0.5"/>
</g>
<defs>
<filter id="filter0_d" x="8" y="7" width="28" height="28" filterUnits="userSpaceOnUse" color-interpolation-filters="sRGB">
<feFlood flood-opacity="0" result="BackgroundImageFix"/>
<feColorMatrix in="SourceAlpha" type="matrix" values="0 0 0 0 0 0 0 0 0 0 0 0 0 0 0 0 0 0 127 0"/>
<feOffset dy="1"/>
<feGaussianBlur stdDeviation="1"/>
<feColorMatrix type="matrix" values="0 0 0 0 0 0 0 0 0 0 0 0 0 0 0 0 0 0 0.05 0"/>
<feBlend mode="normal" in2="BackgroundImageFix" result="effect1_dropShadow"/>
<feBlend mode="normal" in="SourceGraphic" in2="effect1_dropShadow" result="shape"/>
</filter>
<filter id="filter1_d" x="12" y="11" width="20" height="20" filterUnits="userSpaceOnUse" color-interpolation-filters="sRGB">
<feFlood flood-opacity="0" result="BackgroundImageFix"/>
<feColorMatrix in="SourceAlpha" type="matrix" values="0 0 0 0 0 0 0 0 0 0 0 0 0 0 0 0 0 0 127 0"/>
<feOffset dy="1"/>
<feGaussianBlur stdDeviation="1.5"/>
<feColorMatrix type="matrix" values="0 0 0 0 0 0 0 0 0 0 0 0 0 0 0 0 0 0 0.1 0"/>
<feBlend mode="normal" in2="BackgroundImageFix" result="effect1_dropShadow"/>
<feBlend mode="normal" in="SourceGraphic" in2="effect1_dropShadow" result="shape"/>
</filter>
<linearGradient id="paint0_linear" x1="32" y1="9.5" x2="12" y2="30" gradientUnits="userSpaceOnUse">
<stop stop-color="#3B82F6"/>
<stop offset="1" stop-color="#8B5CF6"/>
</linearGradient>
<linearGradient id="paint1_linear" x1="32" y1="9.5" x2="12" y2="30" gradientUnits="userSpaceOnUse">
<stop stop-color="#3B82F6"/>
<stop offset="1" stop-color="#8B5CF6"/>
</linearGradient>
<linearGradient id="paint2_linear" x1="32" y1="9.5" x2="12" y2="30" gradientUnits="userSpaceOnUse">
<stop stop-color="#3B82F6"/>
<stop offset="1" stop-color="#8B5CF6"/>
</linearGradient>
<linearGradient id="paint3_linear" x1="32" y1="9.5" x2="12" y2="30" gradientUnits="userSpaceOnUse">
<stop stop-color="#3B82F6"/>
<stop offset="1" stop-color="#8B5CF6"/>
</linearGradient>
</defs>
</svg>
