<svg width="118" height="39" viewBox="0 0 118 39" fill="none" xmlns="http://www.w3.org/2000/svg">
<g filter="url(#filter0_d)">
<rect x="33" y="8" width="24" height="24" rx="6" transform="rotate(90 33 8)" fill="#F8FAFC"/>
<g filter="url(#filter1_d)">
<path d="M18 18.5C20.5 18.5 21 18.5 21 18.5C21 18.5 21.5 18.5 24 18.5C26.5 18.5 26.5 24 24 22.5C21.5 21 20.5 21 18 22.5C15.5 24 15.5 18.5 18 18.5Z" fill="url(#paint0_linear)"/>
<path d="M24 21.375C21.5 21.375 21 21.375 21 21.375C21 21.375 20.5 21.375 18 21.375C15.5 21.375 15.5 15.875 18 17.375C20.5 18.875 21.5 18.875 24 17.375C26.5 15.875 26.5 21.375 24 21.375Z" fill="url(#paint1_linear)"/>
<path d="M28 20C28 23.866 26.8807 27 25.5 27C24.1193 27 23 23.866 23 20C23 16.134 24.1193 13 25.5 13C26.8807 13 28 16.134 28 20Z" fill="url(#paint2_linear)"/>
<path d="M19 20C19 23.866 17.8807 27 16.5 27C15.1193 27 14 23.866 14 20C14 16.134 15.1193 13 16.5 13C17.8807 13 19 16.134 19 20Z" fill="url(#paint3_linear)"/>
</g>
<rect x="32.75" y="8.25" width="23.5" height="23.5" rx="5.75" transform="rotate(90 32.75 8.25)" stroke="#E2E8F0" stroke-width="0.5"/>
</g>
<path d="M45.02 21H42.98V24H41.67V17.02H42.98V19.92H45.02V17.02H46.33V24H45.02V21ZM50.3461 24V21.45L48.0761 17.02H49.5361L50.3461 18.7L50.9761 20.13H51.0461L51.6861 18.7L52.5061 17.02H53.9161L51.6461 21.45V24H50.3461ZM55.7922 24V17.02H58.4422C59.1222 17.02 59.6422 17.2133 60.0022 17.6C60.3622 17.9867 60.5422 18.5133 60.5422 19.18C60.5422 19.8467 60.3622 20.3733 60.0022 20.76C59.6422 21.1467 59.1222 21.34 58.4422 21.34H57.1022V24H55.7922ZM57.1022 20.27H58.1722C58.5255 20.27 58.7789 20.2 58.9322 20.06C59.0855 19.9133 59.1622 19.6833 59.1622 19.37V18.99C59.1622 18.6767 59.0855 18.45 58.9322 18.31C58.7789 18.1633 58.5255 18.09 58.1722 18.09H57.1022V20.27ZM62.8183 24V17.02H67.2283V18.1H64.1283V19.92H67.1183V21H64.1283V22.92H67.2283V24H62.8183ZM71.0944 24H69.7844V17.02H72.4344C73.1144 17.02 73.6344 17.2133 73.9944 17.6C74.3544 17.9867 74.5344 18.5133 74.5344 19.18C74.5344 19.6933 74.4144 20.1267 74.1744 20.48C73.941 20.8267 73.6044 21.0467 73.1644 21.14L74.6544 24H73.2144L71.8844 21.29H71.0944V24ZM72.1644 20.27C72.5177 20.27 72.771 20.2 72.9244 20.06C73.0777 19.9133 73.1544 19.6833 73.1544 19.37V18.99C73.1544 18.6767 73.0777 18.45 72.9244 18.31C72.771 18.1633 72.5177 18.09 72.1644 18.09H71.0944V20.27H72.1644ZM78.9005 24.12C78.3005 24.12 77.7871 24.0167 77.3605 23.81C76.9405 23.6033 76.5971 23.33 76.3305 22.99L77.1205 22.17C77.3805 22.47 77.6605 22.6933 77.9605 22.84C78.2671 22.98 78.5938 23.05 78.9405 23.05C79.3405 23.05 79.6471 22.96 79.8605 22.78C80.0738 22.6 80.1805 22.34 80.1805 22C80.1805 21.72 80.1005 21.51 79.9405 21.37C79.7805 21.2233 79.5105 21.12 79.1305 21.06L78.3905 20.94C77.7438 20.8267 77.2838 20.5933 77.0105 20.24C76.7371 19.88 76.6005 19.4567 76.6005 18.97C76.6005 18.3033 76.8171 17.7933 77.2505 17.44C77.6838 17.08 78.2838 16.9 79.0505 16.9C79.5971 16.9 80.0671 16.9867 80.4605 17.16C80.8605 17.3333 81.1805 17.57 81.4205 17.87L80.6505 18.69C80.4638 18.47 80.2405 18.2967 79.9805 18.17C79.7205 18.0367 79.4138 17.97 79.0605 17.97C78.3005 17.97 77.9205 18.2833 77.9205 18.91C77.9205 19.1767 78.0005 19.38 78.1605 19.52C78.3205 19.66 78.5938 19.7633 78.9805 19.83L79.7105 19.96C80.3171 20.0733 80.7671 20.2967 81.0605 20.63C81.3538 20.9633 81.5005 21.39 81.5005 21.91C81.5005 22.2367 81.4438 22.5367 81.3305 22.81C81.2171 23.0767 81.0505 23.31 80.8305 23.51C80.6105 23.7033 80.3371 23.8533 80.0105 23.96C79.6905 24.0667 79.3205 24.12 78.9005 24.12ZM83.7766 24V17.02H86.4266C87.1066 17.02 87.6266 17.2133 87.9866 17.6C88.3466 17.9867 88.5266 18.5133 88.5266 19.18C88.5266 19.8467 88.3466 20.3733 87.9866 20.76C87.6266 21.1467 87.1066 21.34 86.4266 21.34H85.0866V24H83.7766ZM85.0866 20.27H86.1566C86.5099 20.27 86.7632 20.2 86.9166 20.06C87.0699 19.9133 87.1466 19.6833 87.1466 19.37V18.99C87.1466 18.6767 87.0699 18.45 86.9166 18.31C86.7632 18.1633 86.5099 18.09 86.1566 18.09H85.0866V20.27ZM94.4627 24L93.9727 22.23H91.9027L91.4227 24H90.1027L92.0627 17.02H93.8827L95.8527 24H94.4627ZM92.9827 18.31H92.9027L92.1327 21.16H93.7527L92.9827 18.31ZM100.149 24.12C99.2354 24.12 98.5588 23.8067 98.1188 23.18C97.6854 22.5533 97.4688 21.6633 97.4688 20.51C97.4688 19.3633 97.6854 18.4767 98.1188 17.85C98.5588 17.2167 99.2354 16.9 100.149 16.9C100.495 16.9 100.799 16.9467 101.059 17.04C101.325 17.1333 101.555 17.2633 101.749 17.43C101.942 17.59 102.102 17.7867 102.229 18.02C102.355 18.2467 102.455 18.4967 102.529 18.77L101.329 19.11C101.282 18.95 101.229 18.8 101.169 18.66C101.109 18.52 101.032 18.4 100.939 18.3C100.852 18.1933 100.742 18.1133 100.609 18.06C100.475 18 100.315 17.97 100.129 17.97C99.6754 17.97 99.3488 18.1433 99.1488 18.49C98.9554 18.8367 98.8588 19.31 98.8588 19.91V21.11C98.8588 21.71 98.9554 22.1833 99.1488 22.53C99.3488 22.8767 99.6754 23.05 100.129 23.05C100.315 23.05 100.475 23.0233 100.609 22.97C100.742 22.91 100.852 22.83 100.939 22.73C101.032 22.6233 101.109 22.5 101.169 22.36C101.229 22.22 101.282 22.07 101.329 21.91L102.529 22.25C102.455 22.5233 102.355 22.7767 102.229 23.01C102.102 23.2367 101.942 23.4333 101.749 23.6C101.555 23.76 101.325 23.8867 101.059 23.98C100.799 24.0733 100.495 24.12 100.149 24.12ZM104.795 24V17.02H109.205V18.1H106.105V19.92H109.095V21H106.105V22.92H109.205V24H104.795Z" fill="#334155"/>
<defs>
<filter id="filter0_d" x="7" y="7" width="28" height="28" filterUnits="userSpaceOnUse" color-interpolation-filters="sRGB">
<feFlood flood-opacity="0" result="BackgroundImageFix"/>
<feColorMatrix in="SourceAlpha" type="matrix" values="0 0 0 0 0 0 0 0 0 0 0 0 0 0 0 0 0 0 127 0"/>
<feOffset dy="1"/>
<feGaussianBlur stdDeviation="1"/>
<feColorMatrix type="matrix" values="0 0 0 0 0 0 0 0 0 0 0 0 0 0 0 0 0 0 0.05 0"/>
<feBlend mode="normal" in2="BackgroundImageFix" result="effect1_dropShadow"/>
<feBlend mode="normal" in="SourceGraphic" in2="effect1_dropShadow" result="shape"/>
</filter>
<filter id="filter1_d" x="11" y="11" width="20" height="20" filterUnits="userSpaceOnUse" color-interpolation-filters="sRGB">
<feFlood flood-opacity="0" result="BackgroundImageFix"/>
<feColorMatrix in="SourceAlpha" type="matrix" values="0 0 0 0 0 0 0 0 0 0 0 0 0 0 0 0 0 0 127 0"/>
<feOffset dy="1"/>
<feGaussianBlur stdDeviation="1.5"/>
<feColorMatrix type="matrix" values="0 0 0 0 0 0 0 0 0 0 0 0 0 0 0 0 0 0 0.1 0"/>
<feBlend mode="normal" in2="BackgroundImageFix" result="effect1_dropShadow"/>
<feBlend mode="normal" in="SourceGraphic" in2="effect1_dropShadow" result="shape"/>
</filter>
<linearGradient id="paint0_linear" x1="31" y1="9.5" x2="11" y2="30" gradientUnits="userSpaceOnUse">
<stop stop-color="#3B82F6"/>
<stop offset="1" stop-color="#8B5CF6"/>
</linearGradient>
<linearGradient id="paint1_linear" x1="31" y1="9.5" x2="11" y2="30" gradientUnits="userSpaceOnUse">
<stop stop-color="#3B82F6"/>
<stop offset="1" stop-color="#8B5CF6"/>
</linearGradient>
<linearGradient id="paint2_linear" x1="31" y1="9.5" x2="11" y2="30" gradientUnits="userSpaceOnUse">
<stop stop-color="#3B82F6"/>
<stop offset="1" stop-color="#8B5CF6"/>
</linearGradient>
<linearGradient id="paint3_linear" x1="31" y1="9.5" x2="11" y2="30" gradientUnits="userSpaceOnUse">
<stop stop-color="#3B82F6"/>
<stop offset="1" stop-color="#8B5CF6"/>
</linearGradient>
</defs>
</svg>
